<svg width="308" height="27" viewBox="0 0 308 27" fill="none" xmlns="http://www.w3.org/2000/svg">
<path d="M24.6381 0.416016V26.1871H22.1656V5.41428L12.3157 18.0166L2.4658 5.41428V26.1871H0V0.416016H1.44615L12.3157 14.3779L23.2253 0.416016H24.6381Z" fill="#EDE9DF"/>
<path d="M58.5797 0.416016L48.4565 17.2235V26.1871H46.004V17.2635L35.8809 0.416016H38.7132L47.2236 14.4045L55.7473 0.416016H58.5797Z" fill="#EDE9DF"/>
<path d="M101.711 18.9094C101.711 21.142 100.784 22.9814 98.9384 24.3742C97.1257 25.7471 94.9331 26.4402 92.4007 26.4402H92.1874C89.7016 26.4402 87.549 25.9003 85.783 24.8674C84.0236 23.8144 82.744 22.3682 82.0109 20.5555L81.9043 20.3156L83.6037 18.7362L83.8036 19.2426C84.3968 20.7288 85.4098 21.9217 86.8226 22.7881C88.2488 23.6545 90.0481 24.0876 92.1874 24.0876H92.4007C94.32 24.0876 95.9661 23.6011 97.2923 22.6415C98.6118 21.6951 99.2516 20.4822 99.2516 18.9161C99.2516 17.4499 98.8118 16.3503 97.9121 15.5972C96.9924 14.8175 95.5196 14.291 93.5336 14.0378L90.4547 13.6046C87.8289 13.2647 85.8429 12.5916 84.5834 11.5986C83.2838 10.579 82.624 9.13281 82.624 7.29345C82.624 5.18751 83.4971 3.43479 85.2365 2.11525C86.9359 0.8157 88.9818 0.162598 91.2877 0.162598H91.7209C93.5802 0.162598 95.3197 0.542468 96.8991 1.28888C98.4919 2.03528 99.7914 3.12157 100.751 4.50775L100.938 4.77432L99.2849 6.32713L99.0317 5.98057C98.2386 4.87429 97.1857 4.00792 95.9128 3.41479C94.6132 2.82166 93.2137 2.51512 91.7276 2.51512H91.2944C89.6616 2.51512 88.1954 2.95495 86.9292 3.83465C85.6963 4.68102 85.0965 5.80731 85.0965 7.26014C85.0965 8.38641 85.4964 9.23278 86.3228 9.85256C87.1891 10.5057 88.662 10.9722 90.7079 11.2454L93.7735 11.6786C96.4126 12.0185 98.4053 12.7649 99.7115 13.8912C101.038 15.0508 101.711 16.7368 101.711 18.9094Z" fill="#EDE9DF"/>
<path d="M128.963 0.416016V2.76188H120.773V26.1871H118.314V2.76188H110.123V0.416016H128.963Z" fill="#EDE9DF"/>
<path d="M159.445 4.00825C156.893 1.4558 153.76 0.15625 150.155 0.15625C148.349 0.15625 146.663 0.482798 145.117 1.12924C143.564 1.77568 142.151 2.73536 140.878 4.00825C138.339 6.5607 137.053 9.67962 137.053 13.2984C137.053 16.9171 138.339 20.036 140.878 22.5885C143.417 25.1409 146.543 26.4405 150.162 26.4405C153.767 26.4405 156.899 25.1409 159.452 22.5885C162.004 20.036 163.29 16.9038 163.29 13.2984C163.284 9.67962 161.991 6.5607 159.445 4.00825ZM150.148 24.0746C147.183 24.0746 144.643 23.0283 142.597 20.9624C140.538 18.9031 139.505 16.324 139.505 13.2984C139.505 10.2594 140.538 7.68698 142.597 5.62103C144.643 3.56175 147.183 2.50877 150.148 2.50877C153.101 2.50877 155.64 3.56175 157.712 5.62103C159.778 7.68698 160.824 10.2727 160.824 13.2984C160.824 16.324 159.778 18.9098 157.732 20.9624C155.68 23.035 153.127 24.0746 150.148 24.0746Z" fill="#EDE9DF"/>
<path d="M190.795 21.5354C189.655 19.756 188.455 18.4964 187.223 17.8033C188.942 17.2036 190.355 16.2972 191.454 15.0843C192.774 13.6381 193.427 11.7854 193.427 9.57951C193.427 6.68051 192.361 4.40131 190.241 2.80187C188.162 1.22241 185.476 0.416016 182.258 0.416016H174.094V26.1871H176.553V18.7497H182.471C183.884 18.7497 185.01 18.9829 185.836 19.4361C186.656 19.8893 187.589 20.9156 188.602 22.475L191.008 26.1871H193.867L190.795 21.5354ZM176.546 2.76188H182.358C184.89 2.76188 186.996 3.355 188.609 4.50127C190.215 5.64088 190.995 7.29365 190.995 9.57286C190.995 11.8521 190.215 13.5048 188.609 14.6578C186.996 15.804 184.883 16.3905 182.358 16.3905H176.546V2.76188Z" fill="#EDE9DF"/>
<path d="M227.494 2.76188V11.9587H240.516V14.2779H227.494V23.8213H241.19V26.1871H225.035V0.416016H241.19V2.76188H227.494Z" fill="#EDE9DF"/>
<path d="M270.738 18.9094C270.738 21.142 269.812 22.9814 267.966 24.3742C266.153 25.7471 263.96 26.4402 261.428 26.4402H261.215C258.729 26.4402 256.576 25.9003 254.81 24.8674C253.051 23.8144 251.771 22.3682 251.025 20.5555L250.932 20.3156L252.631 18.7362L252.831 19.2426C253.424 20.7288 254.437 21.9217 255.85 22.7881C257.276 23.6545 259.075 24.0876 261.215 24.0876H261.428C263.334 24.0876 264.993 23.6011 266.32 22.6415C267.639 21.6951 268.272 20.4822 268.272 18.9161C268.272 17.4499 267.839 16.3503 266.946 15.5972C266.026 14.8175 264.554 14.291 262.561 14.0378L259.482 13.6046C256.856 13.2647 254.884 12.5916 253.617 11.5986C252.318 10.579 251.658 9.13281 251.658 7.29345C251.658 5.18751 252.531 3.43479 254.27 2.11525C255.97 0.8157 258.016 0.162598 260.322 0.162598H260.755C262.614 0.162598 264.354 0.542468 265.933 1.28888C267.526 2.03528 268.825 3.12157 269.785 4.50775L269.965 4.77432L268.319 6.32713L268.066 5.98057C267.273 4.87429 266.22 4.00792 264.947 3.41479C263.647 2.82166 262.248 2.51512 260.762 2.51512H260.328C258.696 2.51512 257.229 2.95495 255.963 3.83465C254.73 4.68102 254.131 5.80731 254.131 7.26014C254.131 8.38641 254.53 9.23278 255.357 9.85256C256.223 10.5057 257.689 10.9722 259.742 11.2454L262.808 11.6786C265.447 12.0185 267.439 12.7649 268.745 13.8912C270.065 15.0508 270.738 16.7368 270.738 18.9094Z" fill="#EDE9DF"/>
<path d="M282.501 23.8482C282.808 24.1414 282.975 24.5013 282.975 24.9211C282.975 25.3343 282.808 25.6942 282.501 25.9941C282.188 26.2873 281.815 26.4339 281.382 26.4339C280.949 26.4339 280.569 26.274 280.262 25.9941C279.949 25.6875 279.789 25.3277 279.789 24.9211C279.789 24.5013 279.949 24.1414 280.262 23.8482C280.875 23.255 281.875 23.255 282.501 23.8482Z" fill="#EDE9DF"/>
<path d="M295.477 24.9211C295.477 25.3343 295.317 25.6942 295.004 25.9941C294.697 26.2807 294.317 26.4339 293.884 26.4339C293.464 26.4339 293.084 26.274 292.778 25.9941C292.465 25.6875 292.305 25.3277 292.305 24.9211C292.305 24.5013 292.465 24.1414 292.778 23.8482C293.391 23.255 294.391 23.255 295.004 23.8482C295.324 24.1414 295.477 24.5013 295.477 24.9211Z" fill="#EDE9DF"/>
<path d="M308.002 24.9211C308.002 25.3343 307.842 25.6942 307.529 25.9941C307.216 26.2873 306.842 26.4339 306.409 26.4339C305.976 26.4339 305.596 26.274 305.29 25.9941C304.976 25.6875 304.816 25.3277 304.816 24.9211C304.816 24.5013 304.976 24.1414 305.29 23.8482C305.903 23.255 306.902 23.255 307.522 23.8482C307.842 24.1414 308.002 24.5013 308.002 24.9211Z" fill="#EDE9DF"/>
<path d="M209.408 0.382812H206.916V26.1406H209.408V0.382812Z" fill="#EDE9DF"/>
</svg>
