<svg width="437" height="397" viewBox="0 0 437 397" fill="none" xmlns="http://www.w3.org/2000/svg">
<path d="M3.06328 395.341C12.4103 378.621 21.7573 361.911 31.1044 345.191C32.2269 343.171 33.3272 341.141 34.4942 339.141C35.3166 337.741 36.3169 335.961 37.9841 335.231C41.9852 333.471 46.4086 339.411 48.6315 341.641C54.8888 347.951 60.6459 354.651 65.8695 361.681C68.448 365.151 70.8932 368.701 73.1938 372.331C75.3722 375.761 77.1838 379.431 79.5511 382.751C81.5517 385.561 84.3302 387.951 88.0979 388.591C91.8656 389.231 95.3777 388.111 98.4675 386.441C105.636 382.551 110.593 375.781 115.417 369.801C120.585 363.391 125.375 356.761 129.943 349.991C148.248 322.851 162.73 293.691 182.691 267.451C185.169 264.191 187.726 260.981 190.382 257.841C193.038 254.701 195.55 251.272 198.706 248.682C200.907 246.882 202.719 248.021 204.575 249.611C206.197 251.011 207.764 252.461 209.32 253.911C212.432 256.821 215.433 259.831 218.323 262.921C229.971 275.351 239.784 289.161 247.475 303.871C250.354 309.381 253.244 317.111 260.346 319.311C268.859 321.941 273.405 312.201 276.85 307.131C287.709 291.191 298.567 275.251 309.437 259.311C312.149 255.321 314.872 251.341 317.584 247.351H314.705C323.063 259.841 331.421 272.331 339.779 284.831C340.524 285.951 342.413 285.711 342.824 284.471C354.483 249.181 366.131 213.891 377.789 178.601C389.448 143.311 401.096 108.021 412.755 72.7315C419.312 52.8915 425.858 33.0415 432.416 13.2015C432.86 11.8515 430.682 10.5215 429.626 11.7415C423.091 19.3215 416.567 26.9015 410.032 34.4815L412.821 35.9415C414.944 24.2815 418.801 12.9415 424.369 2.24146H421.49C427.781 13.0115 431.927 24.7315 433.649 36.8015C433.916 38.6915 437.261 38.7115 436.984 36.8015C435.183 24.1715 430.949 12.0015 424.369 0.731485C423.813 -0.208515 422.013 -0.278515 421.49 0.731485C415.8 11.6715 411.777 23.2215 409.609 35.1415C409.376 36.4115 411.254 37.9315 412.399 36.6015C418.934 29.0215 425.458 21.4415 431.993 13.8615L429.204 12.4015C417.545 47.6915 405.897 82.9815 394.238 118.271C382.58 153.561 370.932 188.851 359.273 224.141C352.716 243.981 346.17 263.831 339.612 283.671L342.657 283.311C334.3 270.821 325.942 258.331 317.584 245.831C316.928 244.851 315.361 244.871 314.705 245.831C303.847 261.771 292.988 277.711 282.118 293.651C279.407 297.641 276.684 301.621 273.972 305.611C272.616 307.601 271.271 309.601 269.904 311.591C268.804 313.191 267.637 315.001 265.803 316.001C258.378 320.031 253.166 307.811 250.988 303.571C243.497 288.981 233.905 275.301 222.591 262.871C219.746 259.741 216.789 256.702 213.733 253.752C210.921 251.042 208.02 247.711 204.541 245.691C201.063 243.671 197.973 244.902 195.494 247.372C192.66 250.212 190.071 253.291 187.503 256.321C166.097 281.651 151.227 310.701 133.766 338.211C125.075 351.901 115.817 365.831 104.358 377.821C99.301 383.111 89.5539 389.891 83.1855 382.221C80.6181 379.131 78.9398 375.371 76.8392 372.021C74.5608 368.381 72.1491 364.821 69.6039 361.331C64.5692 354.441 59.0343 347.841 53.0326 341.611C48.9426 337.361 41.5183 327.911 34.6053 333.781C31.6045 336.331 30.0485 340.431 28.2369 343.671C25.9029 347.851 23.5689 352.031 21.2238 356.211C16.5559 364.571 11.8768 372.931 7.20885 381.291L0.195799 393.831C-0.771136 395.551 2.1074 397.071 3.07434 395.341H3.06328Z" fill="black"/>
<path d="M55.2738 63.8274C41.3238 77.3274 27.3738 90.8274 13.4238 104.317C12.5038 105.207 13.1838 106.917 14.4838 106.877C22.8838 106.607 31.2838 106.337 39.6838 106.067C43.8438 105.937 48.0038 105.797 52.1638 105.667C55.4338 105.567 58.9838 105.037 62.2138 105.807C63.2738 106.057 64.5138 106.437 65.2438 107.297C66.1338 108.357 65.6638 109.657 64.9938 110.707C63.2038 113.507 60.7338 116.037 58.3838 118.357C53.6938 122.997 48.3538 126.927 42.5538 130.067C35.9438 133.647 28.7738 136.107 21.3638 137.377C19.4638 137.707 20.2738 140.597 22.1638 140.267C36.3138 137.837 49.6238 131.007 59.9338 121.027C62.5238 118.517 64.9838 115.807 67.1138 112.887C69.0038 110.297 69.5038 106.837 66.7738 104.627C64.5738 102.857 61.4438 102.407 58.7038 102.447C54.1938 102.507 49.6838 102.737 45.1838 102.877C34.9538 103.207 24.7238 103.527 14.4938 103.857L15.5538 106.417C29.5038 92.9174 43.4538 79.4174 57.4038 65.9274C58.7938 64.5874 56.6738 62.4674 55.2838 63.8074L55.2738 63.8274Z" fill="black"/>
<path d="M22.2936 65.9274C33.1136 81.7874 43.2036 98.1474 52.4936 114.947C55.1336 119.717 57.7036 124.527 60.2136 129.367C61.1036 131.077 63.6936 129.567 62.8036 127.857C53.9636 110.817 44.3336 94.1874 33.9336 78.0474C30.9836 73.4674 27.9636 68.9274 24.8936 64.4174C23.8136 62.8274 21.2136 64.3274 22.3036 65.9274H22.2936Z" fill="black"/>
<path d="M37.8939 61.1774C49.9639 79.1474 60.7339 97.9674 70.0839 117.487C72.7539 123.067 75.3139 128.697 77.7539 134.377C78.5139 136.147 81.1039 134.617 80.3439 132.867C71.7939 112.987 61.8239 93.7174 50.5039 75.2774C47.2739 70.0074 43.9239 64.8074 40.4739 59.6774C39.4039 58.0874 36.8039 59.5874 37.8839 61.1874L37.8939 61.1774Z" fill="black"/>
</svg>
