<svg width="457" height="312" viewBox="0 0 457 312" fill="none" xmlns="http://www.w3.org/2000/svg">
<path d="M143.013 77.2968C141.876 83.5389 148.948 88.5723 154.659 87.2989C161.914 85.6855 164.98 77.442 163.869 70.7854C163.237 66.9694 161.468 63.3894 159.423 60.1502C157.597 57.2819 155.258 54.527 152.224 52.8838C149.189 51.2407 145.89 50.8515 142.999 52.7437C139.899 54.7753 138.669 58.5874 137.533 61.9383C135.304 68.5056 133.73 76.8838 139.084 82.4232C140.983 84.3917 144.175 81.5856 142.263 79.6127C138.874 76.1087 139.424 70.9245 140.567 66.5621C141.244 63.9689 142.069 61.2454 143.262 58.8522C144.241 56.8802 145.835 55.3049 148.177 55.7952C150.519 56.2855 152.659 58.2444 154.181 60.0886C155.951 62.2231 157.359 64.7747 158.426 67.3184C160.436 72.0659 160.712 78.2236 156.367 81.8115C154.586 83.28 152.282 83.6668 150.189 82.6477C148.096 81.6285 146.82 79.7613 147.23 77.4821C147.437 76.3581 146.248 75.3096 145.209 75.2498C143.947 75.1907 143.189 76.1326 142.977 77.27L143.013 77.2968Z" fill="black"/>
<path d="M319.569 104.173C313.393 107.663 318.002 115.415 322.124 118.461C327.698 122.568 335.189 125.295 342.058 123.137C347.942 121.294 352.968 116.366 353.103 109.912C353.234 103.964 349.455 98.4824 344.63 95.3091C337.42 90.5581 328.224 91.0087 319.991 91.5237C317.297 91.6923 317.044 95.9314 319.783 95.7627C329.722 95.14 343.268 94.6058 348.006 105.531C349.835 109.742 348.549 114.266 344.923 117.033C340.716 120.249 335.202 120.157 330.448 118.304C327.755 117.25 324.703 115.616 322.777 113.415C321.879 112.388 319.587 109.038 321.477 107.963C323.859 106.618 321.951 102.828 319.569 104.173Z" fill="black"/>
<path d="M31.0801 88.9785C33.9701 117.731 46.9606 144.512 65.1704 166.683C85.3919 191.293 111.733 209.74 140.262 223.544C172.328 239.053 206.952 249.251 241.469 257.655C257.511 261.567 273.937 264.726 290.523 264.645C305.896 264.58 320.908 261.415 334.903 255.052C361.692 242.898 382.976 221.37 402.516 199.936C404.943 197.28 407.348 194.601 409.749 191.936C410.619 190.972 410.807 189.364 409.516 188.58C405.05 185.854 400.581 183.14 396.129 180.418C393.798 178.992 391.449 182.494 393.771 183.947C405.984 191.647 420.708 194.542 434.933 192.041C437.622 191.573 436.742 187.422 434.053 187.89C420.969 190.187 407.369 187.499 396.147 180.409L393.789 183.938C398.254 186.664 402.724 189.378 407.176 192.1L406.943 188.744C387.873 210.02 368.003 231.911 342.912 246.191C330.231 253.404 316.405 258.258 301.868 259.807C285.658 261.548 269.213 259.396 253.365 256.025C237.517 252.653 220.272 247.912 203.995 243.043C187.717 238.174 170.694 232.358 154.63 225.443C125.244 212.786 97.4928 195.721 75.6091 172.128C56.5266 151.562 41.8933 126.324 36.7367 98.5227C36.0916 95.0604 35.6031 91.5752 35.2533 88.0763C34.9862 85.3648 30.8309 86.258 31.1024 88.956L31.0801 88.9785Z" fill="black"/>
</svg>
