<svg width="416" height="265" viewBox="0 0 416 265" fill="none" xmlns="http://www.w3.org/2000/svg">
<path d="M183.754 77.5696C161.644 86.1096 138.154 90.0796 114.964 94.4496C90.7439 99.0096 66.5239 103.58 42.3039 108.14C28.5539 110.73 14.8139 113.32 1.06392 115.91C-0.266079 116.16 -0.306064 118.01 0.703936 118.65C21.3839 131.61 42.5839 143.72 64.2639 154.93C70.4039 158.11 76.5839 161.21 82.8039 164.24C84.5339 165.08 86.0539 162.5 84.3139 161.65C62.3839 150.95 40.8939 139.35 19.9139 126.87C13.9739 123.33 8.07395 119.73 2.21395 116.05L1.85396 118.79C26.234 114.2 50.6239 109.6 75.0039 105.01C87.1139 102.73 99.2239 100.45 111.334 98.1596C123.444 95.8696 134.744 93.8496 146.384 91.3596C159.334 88.5796 172.174 85.2296 184.544 80.4496C186.324 79.7596 185.554 76.8596 183.744 77.5596L183.754 77.5696Z" fill="black"/>
<path d="M304.804 0.469665C288.784 17.7697 272.774 35.0697 256.754 52.3697C240.794 69.6097 224.844 86.8397 208.884 104.08C193.374 120.83 177.814 137.55 162.374 154.37C147.724 170.34 133.254 186.48 119.434 203.17C105.664 219.8 92.5139 236.97 80.5539 254.95C79.0439 257.22 77.554 259.5 76.084 261.8C75.034 263.43 77.6339 264.94 78.6739 263.31C90.3639 245.07 103.304 227.67 116.974 210.87C130.644 194.06 145.024 177.83 159.614 161.82C174.204 145.81 190.064 128.8 205.324 112.32C221.284 95.0797 237.234 77.8497 253.194 60.6097C269.094 43.4397 284.994 26.2697 300.884 9.09966L306.914 2.58966C308.224 1.16966 306.104 -0.950335 304.794 0.469665H304.804Z" fill="black"/>
<path d="M305.204 59.5295C321.004 67.6295 337.274 74.8095 353.914 81.0195C370.554 87.2295 387.444 92.4296 404.644 96.6296C407.174 97.2495 411.434 97.9895 412.464 100.82C413.684 104.18 408.704 106.26 406.414 107.28C398.244 110.9 389.754 113.79 381.184 116.31C363.394 121.56 345.244 125.64 327.254 130.1C308.714 134.7 290.164 139.31 271.624 143.91C269.364 144.47 267.104 145.03 264.854 145.59C262.984 146.05 263.774 148.95 265.654 148.48C284.764 143.74 303.874 138.99 322.974 134.25C341.524 129.65 360.204 125.39 378.594 120.17C387.464 117.65 396.254 114.79 404.764 111.21C408.144 109.79 412.144 108.45 414.394 105.36C416.474 102.51 415.684 98.8895 412.994 96.7795C410.084 94.4995 406.224 93.9195 402.734 93.0395C398.314 91.9295 393.904 90.7495 389.514 89.5095C380.734 87.0195 372.034 84.2695 363.424 81.2595C346.104 75.1995 329.164 68.0795 312.714 59.9395C310.704 58.9495 308.704 57.9395 306.704 56.9095C304.994 56.0295 303.474 58.6195 305.194 59.4995L305.204 59.5295Z" fill="black"/>
</svg>
