<svg width="504" height="348" viewBox="0 0 504 348" fill="none" xmlns="http://www.w3.org/2000/svg">
<path d="M210.67 138.872C207.87 116.392 204.62 93.8616 200.14 71.6416C196.83 55.2416 192.15 38.2516 182.3 24.4616C177.62 17.9116 171.75 12.2216 164.71 8.25162C155.67 3.16162 145.35 1.37162 135.11 0.691623C124.19 -0.0383772 113.09 -0.188399 102.15 0.231601C91.2103 0.651601 79.9803 2.05159 69.5103 5.72159C59.5103 9.23159 50.2803 14.5816 41.5803 20.5816C33.3003 26.3016 25.1503 32.4616 18.2103 39.7816C11.2703 47.1016 6.2803 54.8916 3.2403 64.0816C0.370297 72.7516 -0.51971 82.0516 0.28029 91.1316C1.94029 109.762 10.4503 127.032 23.7303 140.122C37.0103 153.212 54.0503 161.892 71.9103 166.572C93.2703 172.162 115.71 171.862 137.43 168.752C148.83 167.122 160.02 164.572 171.21 161.902C182.4 159.232 192.81 156.862 203.88 157.262C209.15 157.452 214.35 158.382 219.29 160.252C220.69 160.782 221.85 158.702 220.75 157.742C214.35 152.152 209.39 145.072 206.43 137.092C205.76 135.302 202.86 136.072 203.54 137.892C206.67 146.342 211.83 153.922 218.63 159.862L220.09 157.352C199.37 149.522 176.76 157.872 156.27 162.292C134.58 166.972 112.16 169.542 90.0203 166.922C71.5203 164.742 53.3303 158.602 37.9503 147.972C23.0303 137.662 11.3003 123.032 6.09029 105.532C1.00029 88.4516 1.9603 69.2316 11.2403 53.7216C16.3103 45.2316 23.4703 38.2316 31.1103 32.0516C38.9903 25.6816 47.4303 19.7816 56.3203 14.9116C65.7103 9.78159 75.6903 6.32158 86.2703 4.65158C97.0203 2.96158 107.97 2.92161 118.83 3.11161C129.69 3.30161 139.75 3.3216 149.88 5.7316C158.55 7.7916 166.47 11.8716 172.91 18.0616C184.7 29.4016 190.69 45.4816 194.65 61.0016C196.92 69.9116 198.52 78.9616 200.09 88.0116C202.05 99.3516 203.84 110.722 205.44 122.112C206.22 127.672 206.96 133.252 207.65 138.822C207.89 140.712 210.89 140.732 210.65 138.822L210.67 138.872Z" fill="black"/>
<path d="M252.54 309.212C247.97 284.812 248.4 259.552 253.32 235.242C258.22 211.042 267.46 187.762 280.56 166.842C293.96 145.432 311.56 126.072 332.48 111.802C344.64 103.502 358.13 97.6316 372.89 96.2516C388.09 94.8316 403.37 97.3815 417.99 101.462C431.05 105.102 443.9 110.172 455.02 118.032C466.7 126.282 475 137.652 481.24 150.402C487.78 163.772 492.76 178.062 496.07 192.572C499.38 207.082 500.9 222.402 499.83 237.452C497.97 263.422 487.83 289.362 469.3 307.972C449.96 327.402 423.11 335.592 396.65 339.572C382.01 341.772 367.18 342.952 352.4 343.702C336.36 344.512 320.26 344.552 304.24 343.382C289.24 342.282 274.55 339.542 259.7 337.312C246.33 335.312 232.55 333.882 219.15 336.482C212.81 337.712 206.69 339.942 201.1 343.192L202.92 345.552C217.27 332.642 233.62 322.062 251.25 314.192C253.01 313.412 251.49 310.822 249.74 311.602C231.87 319.572 215.34 330.342 200.8 343.432C199.52 344.582 201.16 346.632 202.62 345.792C214.75 338.732 228.84 337.452 242.6 338.362C257.06 339.312 271.23 342.492 285.56 344.442C317.55 348.792 350.12 347.762 382.16 344.402C409.4 341.542 437.83 336.082 460.39 319.562C481.65 304.002 495.25 279.802 500.53 254.242C506.64 224.702 501.67 193.852 491.12 165.912C485.99 152.332 479.78 138.752 470.2 127.692C461.17 117.262 449.21 109.922 436.57 104.662C423.06 99.0416 408.49 95.2516 393.95 93.6116C378.76 91.8916 363.33 93.2016 349.16 99.1716C336.16 104.652 324.59 113.182 314.08 122.492C304.65 130.842 296.11 140.152 288.47 150.162C273.22 170.162 261.79 193.062 254.71 217.182C247.63 241.302 244.88 266.732 247.12 291.772C247.67 297.892 248.52 303.992 249.65 310.032C250.01 311.932 252.9 311.122 252.54 309.232V309.212Z" fill="black"/>
<path d="M59.7003 55.6916C68.1703 51.9716 77.0903 49.2116 86.1803 47.5116C88.2403 47.1316 90.4403 46.7615 92.5003 47.3315C94.3803 47.8415 95.8303 49.1415 97.0903 50.5815C100.09 54.0115 102.6 57.9616 105.28 61.6416C106.68 63.5616 108.08 65.4815 109.48 67.4015C110.68 69.0515 111.84 70.8015 113.4 72.1515C114.72 73.2915 116.32 74.2115 118.11 74.1815C119.9 74.1515 121.56 73.1415 122.77 71.7715C124.25 70.0915 125.48 68.1515 126.78 66.3315C128.18 64.3815 129.58 62.4415 130.98 60.4915C132.21 58.7815 133.37 56.9815 134.79 55.4115C135.92 54.1515 137.38 52.7815 139.17 52.7115C141.21 52.6215 142.81 54.2916 144.21 55.5616C145.81 57.0116 147.5 58.2915 149.49 59.1815C153.54 60.9915 158.06 61.3815 162.34 60.1715C164.2 59.6515 163.41 56.7515 161.54 57.2815C157.82 58.3315 153.76 58.0016 150.29 56.2516C148.5 55.3516 147.09 54.1115 145.61 52.7815C144.27 51.5815 142.8 50.3815 141.01 49.9215C137.23 48.9515 134.02 51.5215 131.81 54.3015C128.91 57.9315 126.32 61.8415 123.61 65.6115C122.43 67.2615 121.27 69.4915 119.57 70.6615C117.87 71.8315 116.2 70.7216 114.96 69.5016C113.46 68.0116 112.3 66.1915 111.06 64.4915C109.66 62.5715 108.26 60.6515 106.86 58.7315C104.22 55.1115 101.77 51.1316 98.6803 47.8716C95.5903 44.6116 92.0004 43.6815 87.7404 44.2415C77.5904 45.5715 67.5103 49.0015 58.1703 53.1015C56.4103 53.8715 57.9303 56.4616 59.6803 55.6916H59.7003Z" fill="black"/>
<path d="M34.0703 93.2916C37.4003 96.8216 41.0703 100.632 45.9403 101.872C50.4103 103.002 54.7903 101.862 57.7303 98.2715C58.3603 97.5115 59.0103 96.5416 60.0903 96.4816C61.3103 96.4116 62.5503 97.2116 63.5003 97.9116C65.1203 99.1016 66.3403 100.752 67.3503 102.472C69.5103 106.162 70.7003 110.322 72.8103 114.022C76.5103 120.502 86.6103 126.772 92.3903 119.112C93.4503 117.712 94.2103 116.122 94.9903 114.552C95.6603 113.222 96.3403 111.622 97.5203 110.652C98.9903 109.452 100.55 110.472 101.95 111.302C104.52 112.832 107.09 114.372 109.66 115.902C112.59 117.652 115.51 119.392 118.44 121.142C121.1 122.732 123.73 124.512 126.61 125.682C128.97 126.642 131.61 127.012 134.04 126.112C136.27 125.292 138.13 123.582 138.65 121.202C139.06 119.322 136.17 118.512 135.76 120.402C135.35 122.292 133.65 123.342 131.83 123.592C129.45 123.912 127.09 122.722 125.08 121.592C120.17 118.812 115.38 115.822 110.54 112.932C108.04 111.442 105.55 109.932 103.05 108.462C101.39 107.482 99.5603 106.712 97.6203 107.272C94.4703 108.162 93.1003 111.732 91.7503 114.362C90.2203 117.352 88.2403 120.302 84.4303 119.582C80.6203 118.862 77.3803 115.862 75.5003 112.652C73.4303 109.122 72.2803 105.132 70.3003 101.562C68.3203 97.9916 65.2903 94.2616 61.1603 93.5716C58.3903 93.1016 56.8103 94.7916 55.1703 96.7216C53.6403 98.5316 51.5703 99.3416 49.2203 99.3116C43.7403 99.2516 39.7003 94.8816 36.2203 91.1816C34.8903 89.7716 32.7703 91.9016 34.1003 93.3016L34.0703 93.2916Z" fill="black"/>
<path d="M318 190.452C326.57 192.712 335.71 192.412 344.16 189.762C348.37 188.442 352.42 186.562 356.11 184.152C357.9 182.982 359.62 181.682 361.23 180.282C362.96 178.782 364.44 177.042 366.11 175.492C367.78 173.942 369.57 173.002 371.66 174.292C373.75 175.582 375.54 177.412 377.6 178.782C381.59 181.452 386.04 183.482 390.66 184.792C395.54 186.172 400.53 186.622 405.59 186.502C408.36 186.442 411.14 186.302 413.9 186.602C416.66 186.902 419.06 187.722 421.44 188.872C427.13 191.612 432.53 195.092 438 198.242C443.47 201.392 449.3 204.752 454.95 208.012C456.63 208.982 458.14 206.382 456.46 205.422C446.43 199.642 436.45 193.772 426.36 188.092C424.08 186.812 421.74 185.602 419.26 184.752C416.78 183.902 414 183.522 411.3 183.452C406 183.302 400.79 183.842 395.54 182.872C390.71 181.982 386.05 180.292 381.79 177.862C379.65 176.642 377.62 175.252 375.73 173.682C373.84 172.112 372.01 170.562 369.5 170.642C365.07 170.782 362.14 175.532 359.11 178.172C355.79 181.062 351.98 183.402 347.96 185.172C338.86 189.182 328.42 190.112 318.8 187.572C316.93 187.082 316.13 189.972 318 190.462V190.452Z" fill="black"/>
<path d="M319.32 235.732C323.46 236.672 327.14 234.682 330.65 232.742C334.16 230.802 338.05 228.892 342.08 231.122C346.32 233.462 349.6 237.732 352.34 241.622C355.08 245.512 357.71 250.002 360.51 254.112C361.88 256.132 363.32 258.102 364.89 259.972C366.46 261.842 368.49 263.482 371.05 262.642C373.35 261.892 375.23 259.752 376.91 258.112C378.71 256.352 380.42 254.492 382.03 252.552C385.28 248.622 388.14 244.372 390.51 239.852C392.34 236.362 394.01 230.522 398.6 229.892C401.07 229.552 403.47 231.002 405.42 232.332C407.78 233.932 409.91 235.852 412.33 237.362C417.26 240.432 423.12 241.902 428.91 241.622C430.83 241.532 430.84 238.532 428.91 238.622C423.68 238.882 418.5 237.622 414.03 234.882C409.96 232.392 406.55 228.472 401.81 227.202C397.07 225.932 393.32 228.472 390.98 232.352C389.79 234.332 388.9 236.482 387.83 238.522C386.65 240.752 385.36 242.922 383.95 245.012C381.09 249.272 377.76 253.192 374.04 256.722C373.2 257.522 372.35 258.372 371.42 259.072C370.22 259.972 369.24 260.112 368.09 259.042C366.34 257.402 364.93 255.242 363.57 253.272C358.09 245.352 353.67 236.112 345.91 230.092C343.78 228.432 341.33 227.162 338.59 227.032C336.33 226.922 334.14 227.662 332.12 228.602C328.47 230.302 324.43 233.812 320.13 232.842C318.25 232.412 317.45 235.302 319.33 235.732H319.32Z" fill="black"/>
<path d="M289.031 312.922C290.531 309.092 292.111 304.992 295.271 302.202C296.711 300.932 298.511 299.972 300.411 299.662C302.311 299.352 304.071 299.892 305.731 300.852C307.501 301.872 309.131 303.052 311.071 303.742C313.011 304.432 315.241 304.612 317.341 304.512C321.351 304.322 325.241 303.112 329.251 303.022C332.741 302.952 336.791 303.642 338.771 306.842C339.791 308.482 342.381 306.972 341.361 305.332C339.341 302.072 335.851 300.592 332.161 300.162C327.871 299.662 323.741 300.812 319.511 301.322C317.101 301.612 314.611 301.712 312.271 300.982C310.111 300.312 308.361 298.792 306.361 297.782C302.381 295.782 297.891 296.502 294.351 299.112C290.051 302.282 288.011 307.312 286.131 312.132C285.431 313.932 288.331 314.712 289.021 312.932L289.031 312.922Z" fill="black"/>
</svg>
