<svg width="318" height="325" viewBox="0 0 318 325" fill="none" xmlns="http://www.w3.org/2000/svg">
<path d="M61.9252 30.0413C55.4352 21.1013 46.1052 12.5913 34.5352 11.8313C25.1452 11.2113 14.5052 16.5713 11.9352 26.1413C10.2252 32.5013 12.4352 39.0213 15.2152 44.7213C17.6852 49.7813 20.8252 54.8113 25.6052 58.0013C30.3852 61.1913 36.0552 60.8513 39.8552 56.4713C41.7852 54.2413 43.1652 51.5313 44.3752 48.8613C45.5852 46.1913 46.6452 43.3213 47.4252 40.4313C50.9252 27.4913 49.7252 13.4613 43.9552 1.36133L43.4152 3.41134C44.9852 2.38134 46.6152 3.56133 47.7952 4.69133C49.3352 6.16133 50.3652 8.01132 51.5052 9.79132C54.2352 14.0813 56.9552 18.3713 59.6852 22.6513C65.1852 31.3013 70.6752 39.9413 76.1752 48.5913C77.2052 50.2113 79.8052 48.7113 78.7652 47.0813C74.0752 39.7013 69.3752 32.3213 64.6852 24.9413C62.3152 21.2113 59.9452 17.4913 57.5752 13.7613C55.4452 10.4113 53.5152 6.71133 50.9452 3.67133C48.7752 1.11133 45.1652 -1.31866 41.8952 0.821339C41.1752 1.29134 40.9952 2.11133 41.3552 2.87133C45.9352 12.4813 47.4252 23.5413 45.7252 34.0413C44.8752 39.2913 43.2852 44.4413 40.8852 49.1913C38.7952 53.3513 35.6352 58.4613 30.1952 56.9213C25.5552 55.6013 22.0752 50.9913 19.7852 47.0113C16.9652 42.1313 14.2652 36.4413 14.3252 30.6913C14.4152 21.3613 23.1852 15.3013 31.8652 14.8213C43.3552 14.1913 53.0252 22.8613 59.3352 31.5513C60.4552 33.1013 63.0652 31.6013 61.9252 30.0413Z" fill="black"/>
<path d="M2.73521 202.721C11.4152 182.401 16.1452 160.481 16.5352 138.381C16.6452 132.131 16.3952 125.871 15.8152 119.651C15.6852 118.261 13.7952 117.491 13.0152 118.891C4.99522 133.351 2.19521 149.921 1.34521 166.251C0.585215 180.881 1.25522 196.101 6.35522 209.981C8.83522 216.731 12.3752 223.061 17.1452 228.461C21.9152 233.861 29.8752 238.261 35.4452 231.811C37.9752 228.881 39.9652 225.221 41.7752 221.821C43.6852 218.241 45.2452 214.431 45.8052 210.401C46.6752 204.161 44.6952 197.161 39.5252 193.231C33.8652 188.931 26.4352 190.601 21.3852 195.001C15.4452 200.171 13.8352 208.201 13.4352 215.721C13.3252 217.751 13.3052 219.781 13.2752 221.811C13.2452 223.841 16.2552 223.741 16.2752 221.811C16.3552 214.741 16.3552 206.881 20.3552 200.721C23.5152 195.851 30.0052 191.881 35.8152 194.481C41.0052 196.811 43.2952 203.111 43.0052 208.461C42.6052 215.681 38.2852 222.441 34.3652 228.271C33.4552 229.631 32.3552 231.011 30.7952 231.641C29.3952 232.211 27.8752 232.071 26.4652 231.611C23.2752 230.581 20.7552 228.081 18.6352 225.591C14.4052 220.611 11.2552 214.761 9.05521 208.631C4.53521 196.001 3.71522 182.331 4.22522 169.031C4.79522 154.161 6.80521 138.911 13.1252 125.281C13.8952 123.621 14.7252 121.991 15.6152 120.391L12.8152 119.631C14.8352 141.241 12.6652 163.151 6.39522 183.931C4.62522 189.791 2.54522 195.561 0.135216 201.191C-0.614784 202.951 1.96522 204.481 2.72522 202.701L2.73521 202.721Z" fill="black"/>
<path d="M139.695 240.822C143.545 238.532 147.675 236.832 152.035 235.792C154.205 235.272 156.415 234.912 158.645 234.742C160.675 234.582 162.815 234.452 164.795 235.012C169.005 236.212 169.495 241.352 170.175 245.002C171.055 249.682 171.515 254.432 171.595 259.192C171.675 263.952 171.375 268.722 170.655 273.422C170.055 277.322 168.745 281.252 168.765 285.232C168.785 288.512 170.075 291.862 173.445 292.962C177.275 294.222 181.735 292.002 185.145 290.402C193.315 286.562 200.335 280.522 205.475 273.122C206.575 271.532 203.985 270.032 202.885 271.612C198.375 278.102 192.265 283.412 185.235 287.032C183.465 287.942 181.645 288.742 179.765 289.412C177.885 290.082 175.695 290.832 173.845 289.902C171.045 288.472 171.655 284.142 172.115 281.642C172.925 277.232 173.845 272.902 174.245 268.422C174.645 263.942 174.705 259.112 174.375 254.462C174.045 249.812 173.375 245.242 172.325 240.732C171.435 236.912 169.775 233.402 165.755 232.172C163.675 231.542 161.435 231.562 159.295 231.692C156.875 231.842 154.455 232.182 152.085 232.702C147.185 233.772 142.475 235.672 138.165 238.232C136.505 239.222 138.015 241.812 139.675 240.822H139.695Z" fill="black"/>
<path d="M199.155 104.852C190.235 103.742 178.265 103.452 173.935 113.202C171.955 117.672 172.385 122.712 173.635 127.332C174.885 131.952 177.005 137.162 179.675 141.362C181.035 143.502 182.825 145.332 185.235 146.252C187.495 147.112 190.045 147.072 192.355 146.432C197.455 145.002 200.805 140.782 202.695 136.032C204.745 130.862 205.385 125.022 205.435 119.502C205.495 113.602 204.685 107.682 203.265 101.952C200.355 90.2715 194.755 79.4415 188.105 69.4815C184.775 64.4915 181.175 59.7015 177.475 54.9815C173.775 50.2615 170.015 46.0915 167.105 41.1015C164.405 36.4615 162.665 30.9415 163.905 25.5515C165.055 20.5615 168.825 17.2015 173.565 15.6015C178.575 13.9015 183.985 13.7815 189.225 13.8215C195.495 13.8815 201.755 14.4515 207.915 15.5715C211.045 16.1415 214.155 16.8315 217.225 17.6715C219.845 18.3915 222.485 19.2915 224.375 21.3515C227.325 24.5715 227.215 29.4215 227.015 33.5015C226.795 38.1915 226.185 42.9815 227.195 47.6315C227.675 49.8515 229.265 52.0715 231.845 51.2915C234.425 50.5115 235.745 47.7515 237.025 45.6315C238.665 42.9115 240.315 40.1915 241.955 37.4715C242.955 35.8115 240.365 34.3015 239.365 35.9615C237.765 38.6115 236.165 41.2615 234.555 43.9115C233.855 45.0715 233.225 46.3915 232.315 47.4115C231.635 48.1715 230.755 49.0015 230.295 47.6715C229.585 45.6615 229.615 43.2815 229.635 41.1815C229.655 38.8515 229.855 36.5315 229.975 34.2115C230.195 30.0615 230.265 25.6415 228.325 21.8415C225.925 17.1615 220.995 15.5215 216.215 14.3115C204.865 11.4415 192.635 9.99154 180.935 11.1015C176.325 11.5415 171.505 12.5315 167.615 15.1915C163.725 17.8515 161.165 22.2015 160.625 27.0615C159.385 38.2815 167.485 47.1915 173.945 55.3315C181.095 64.3315 187.925 73.6915 193.195 83.9515C198.465 94.2115 202.055 105.472 202.415 117.032C202.585 122.492 202.125 128.132 200.475 133.362C199.005 138.022 196.075 142.502 191.035 143.672C188.865 144.182 186.495 143.922 184.665 142.562C182.695 141.102 181.575 138.742 180.515 136.602C178.355 132.222 176.355 127.542 175.735 122.662C175.155 118.172 176.065 113.552 179.665 110.512C183.265 107.472 187.925 107.172 192.225 107.282C194.545 107.342 196.855 107.582 199.165 107.862C201.075 108.102 201.055 105.102 199.165 104.862L199.155 104.852Z" fill="black"/>
<path d="M314.015 172.382C315.325 168.112 312.405 163.812 308.485 162.222C304.165 160.482 299.355 162.582 296.415 165.882C292.895 169.822 291.885 175.102 291.605 180.222C291.325 185.342 291.365 190.172 292.085 195.062C292.865 200.372 294.735 205.482 298.365 209.522C298.895 210.112 299.955 210.092 300.485 209.522C309.515 199.972 313.265 186.092 310.295 173.292C309.915 171.652 307.275 171.992 307.345 173.692C308.165 193.952 308.985 214.222 309.805 234.482C310.625 254.742 311.445 275.011 312.265 295.271C312.475 300.492 312.915 305.772 312.805 311.002C312.715 314.942 312.065 319.132 308.845 321.762L310.305 321.372C293.435 314.852 284.675 296.922 278.335 281.182C274.315 271.192 270.205 260.382 273.375 249.562C274.845 244.552 277.525 239.992 280.525 235.752C283.365 231.742 286.505 227.902 289.825 224.282C297.055 216.382 305.785 209.332 316.575 207.361C318.475 207.012 317.665 204.122 315.775 204.472C305.745 206.312 297.215 212.422 290.185 219.552C286.595 223.192 283.315 227.122 280.215 231.172C276.915 235.472 273.905 240.022 271.815 245.042C269.725 250.062 268.795 255.832 269.405 261.452C270.015 267.072 271.925 272.962 274.045 278.462C277.515 287.442 281.345 296.412 286.645 304.482C292.305 313.102 299.745 320.501 309.495 324.271C310.015 324.471 310.565 324.202 310.955 323.882C317.275 318.722 315.815 308.912 315.525 301.752C315.105 291.372 314.685 280.992 314.265 270.612C313.425 249.932 312.585 229.252 311.755 208.582C311.285 196.951 310.815 185.332 310.345 173.702L307.395 174.102C310.125 185.842 306.635 198.652 298.355 207.412H300.475C295.075 201.402 294.415 192.792 294.465 185.082C294.495 180.632 294.525 175.932 296.235 171.742C297.615 168.372 300.565 165.132 304.345 164.642C308.125 164.152 312.335 167.642 311.115 171.592C310.545 173.442 313.445 174.232 314.005 172.392L314.015 172.382Z" fill="black"/>
</svg>
